# xmcd
#
# Track frame offsets: 
#        150
#        13963
#        31360
#        50081
#        63156
#        83559
#        100270
#        117886
#        131483
#        147483
#        163961
#        177504
#        193393
#        208274
#        224078
#        240876
#        255783
#        272875
#        284987
#        300268
#
# Disc length: 4239 seconds
#
# Revision: 0
# Processed by: cddbd v1.5.2PL0 Copyright (c) Steve Scherf et al.
# Submitted via: ExactAudioCopyFreeDBPlugin 1.0
#
DISCID=36108d14
DTITLE=Various Artist - 2014 - After The Storm Cd 1
DYEAR=2014
DGENRE=Country
TTITLE0=The Common Linnets - Calm After The Storm
TTITLE1=Lady Antebellum - Need You Now
TTITLE2=John Mayer and Katy Perry - Who You Love
TTITLE3=Johnny Cash and June Carter - The Pine Tree
TTITLE4=Brad Praisley and Carrie Underwood - Remind Me
TTITLE5=The Band Perry - If I Die Young
TTITLE6=Shania Twain and Bryan White - From This Moment On
TTITLE7=Ilse DeLange - When We Don't Talk
TTITLE8=Linda Ronstadt and Aaron Neville - Don't Know Much
TTITLE9=Emmylou Harris and Gram Parsons - Love Hurts
TTITLE10=Norah Jones Ft. Dolly Parton - Creepin' In
TTITLE11=Robert Plant and Alison Krauss - Gone, Gone, Gone
TTITLE12=Kris Kristofferson and Rita Coolidge - We Must Have Been Out Of
TTITLE12=Our Minds
TTITLE13=Vince Gill and Rosanne Cash - If It Weren't For Him
TTITLE14=High South - The Best Is Yet To Come
TTITLE15=Darius Rucker and Sheryl Crow - Love Without You
TTITLE16=Kenny Rogers and Sheena Easton - We've Got Tonight
TTITLE17=George Jones and Tammy Wynette - Cryin' Time
TTITLE18=Lyle Lovett and Sara Watkins - Night's Lullaby
TTITLE19=Willie Nelson and Carrie Underwood - Always On My Mind
EXTD=
EXTT0=
EXTT1=
EXTT2=
EXTT3=
EXTT4=
EXTT5=
EXTT6=
EXTT7=
EXTT8=
EXTT9=
EXTT10=
EXTT11=
EXTT12=
EXTT13=
EXTT14=
EXTT15=
EXTT16=
EXTT17=
EXTT18=
EXTT19=
PLAYORDER=
